{"title":"Adams Family Values","uid":8422867,"size":1202455784,"categoryP":"video","categoryS":"movies","magnet":"?xt=urn:btih:e06cd9ca419c894e6263b47535f9eb5a85a36559&amp;dn=Adams+Family+Values&amp;tr=udp%3A%2F%2Ftracker.openbittorrent.com%3A80&amp;tr=udp%3A%2F%2Fopen.demonii.com%3A1337&amp;tr=udp%3A%2F%2Ftracker.coppersurfer.tk%3A6969&amp;tr=udp%3A%2F%2Fexodus.desync.com%3A6969","seeders":1,"leechers":0,"uploader":"WICKED-MIND","files":4,"time":1367254898,"description":"Adams Family Values (English subs integrated)\n\nComedy, Fantasy, Thriller\n\nStoryline\n\nOn any day of the week, you could expect a newborn baby to be nurtured and loved by his older sister. Except, of course, if it's Wednesday. Pubert is the latest addition to the Addams family and, to prevent sibling rivalry escalating to fratricide, Wednesday and Pugsley are shipped off to summer camp and a nanny is hired. Debby Jellinsky is great with wrinkling baldies, which makes her the perfect nanny for Pubert and the unlikely wife of Uncle Fester. The question is...&quot;Is she grave-digging or gold-digging?&quot; \n\nComplete name                    : Adams Family Values\nFormat                           : AVI\nFormat/Info                      : Audio Video Interleave\nFile size                        : 618 MiB\nDuration                         : 1h 34mn\nOverall bit rate                 : 918 Kbps\n\nVideo\nID                               : 0\nFormat                           : MPEG-4 Visual\nFormat settings, BVOP            : 1\nFormat settings, QPel            : No\nFormat settings, GMC             : No warppoints\nFormat settings, Matrix          : Default (H.263)\nMuxing mode                      : Packed bitstream\nCodec ID                         : DX50\nCodec ID/Hint                    : DivX 5\nDuration                         : 1h 34mn\nBit rate                         : 780 Kbps\nWidth                            : 512 pixels\nHeight                           : 288 pixels\nDisplay aspect ratio             : 16:9\nFrame rate                       : 23.976 fps\nColor space                      : YUV\nChroma subsampling               : 4:2:0\nBit depth                        : 8 bits\nScan type                        : Progressive\nCompression mode                 : Lossy\nBits/(Pixel*Frame)               : 0.221\nStream size                      : 525 MiB (85%)\nWriting library                  : DivX 6.2.5 (UTC 2006-07)\n\nAudio\nID                               : 1\nFormat                           : MPEG Audio\nFormat version                   : Version 1\nFormat profile                   : Layer 3\nCodec ID                         : 55\nCodec ID/Hint                    : MP3\nDuration                         : 1h 34mn\nBit rate mode                    : Constant\nBit rate                         : 128 Kbps\nChannel(s)                       : 2 channels\nSampling rate                    : 44.1 KHz\nCompression mode                 : Lossy\nDelay relative to video          : 26ms\nStream size                      : 86.1 MiB (14%)\nAlignment                        : Split accross interleaves\nInterleave, duration             : 42 ms (1.00 video frame)\nTitle                            : Audio Stream\nWriting library                  : LAME3.92","torrent":{"xt":"urn:btih:e06cd9ca419c894e6263b47535f9eb5a85a36559","amp;dn":"Adams+Family+Values","amp;tr":["udp%3A%2F%2Ftracker.openbittorrent.com%3A80","udp%3A%2F%2Fopen.demonii.com%3A1337","udp%3A%2F%2Ftracker.coppersurfer.tk%3A6969","udp%3A%2F%2Fexodus.desync.com%3A6969"],"infoHash":"e06cd9ca419c894e6263b47535f9eb5a85a36559","infoHashBuffer":{"type":"Buffer","data":[224,108,217,202,65,156,137,78,98,99,180,117,53,249,235,90,133,163,101,89]},"announce":[],"urlList":[]}}